#tb 0: 1/25
#media_type 0: video
#codec_id 0: rawvideo
#dimensions 0: 720x480
#sar 0: 0/1
0,          0,          0,        1,   518400, 0x8336b7db
0,          1,          1,        1,   518400, 0x9818c309
0,          2,          2,        1,   518400, 0x5417b6f9
0,          3,          3,        1,   518400, 0x8f0a5de4
0,          4,          4,        1,   518400, 0xa4ce43f3
0,          5,          5,        1,   518400, 0xfe748339
0,          6,          6,        1,   518400, 0xeab93a93
0,          7,          7,        1,   518400, 0x095176e4
0,          8,          8,        1,   518400, 0x99a45050
0,          9,          9,        1,   518400, 0xad3766e8
0,         10,         10,        1,   518400, 0xea133c1b
0,         11,         11,        1,   518400, 0xdcb2188b
0,         12,         12,        1,   518400, 0xec08c8ce
0,         13,         13,        1,   518400, 0xf38cd4f2
0,         14,         14,        1,   518400, 0x06177f80
0,         15,         15,        1,   518400, 0x2c68b642
0,         16,         16,        1,   518400, 0x7d290881
0,         17,         17,        1,   518400, 0x26c939d8
0,         18,         18,        1,   518400, 0xa0391a6e
0,         19,         19,        1,   518400, 0x3b9f02c1
0,         20,         20,        1,   518400, 0x335a0ff9
0,         21,         21,        1,   518400, 0x0deafb41
0,         22,         22,        1,   518400, 0xbf00bfe4
0,         23,         23,        1,   518400, 0xc9145210
0,         24,         24,        1,   518400, 0xb6e16a54
0,         25,         25,        1,   518400, 0xc31664da
0,         26,         26,        1,   518400, 0xfd3be55d
0,         27,         27,        1,   518400, 0xf33b134c
0,         28,         28,        1,   518400, 0xc6977304
0,         29,         29,        1,   518400, 0xa605bdb6
